<svg id="Layer_1" data-name="Layer 1" xmlns="http://www.w3.org/2000/svg" xmlns:xlink="http://www.w3.org/1999/xlink" viewBox="0 0 35.36 39.12"><defs><style>.cls-1{fill:url(#linear-gradient);}</style><linearGradient id="linear-gradient" x1="311.02" y1="379.96" x2="293.73" y2="409.92" gradientUnits="userSpaceOnUse"><stop offset="0.07" stop-color="#4e9aa0"/><stop offset="0.15" stop-color="#529ca1"/><stop offset="0.23" stop-color="#60a1a6"/><stop offset="0.32" stop-color="#76a9ad"/><stop offset="0.41" stop-color="#94b4b7"/><stop offset="0.5" stop-color="#bbc3c4"/><stop offset="0.53" stop-color="#c8c8c8"/><stop offset="0.71" stop-color="#c2a097"/><stop offset="0.81" stop-color="#bf8e80"/></linearGradient></defs><path class="cls-1" d="M305.34,416a2.35,2.35,0,0,0,2.23-1.66,29,29,0,0,1,2.15-5.17l.17-.31a24.88,24.88,0,0,1,5.17-7.09c8-7,7.17-10,7.29-11.19a1.61,1.61,0,0,0-.12-.89,1.06,1.06,0,0,0-2-.08c-.41.94,0,4.61-.89,5.7a50.66,50.66,0,0,1-4.06,4h0a1.2,1.2,0,0,1-2-.6,21.33,21.33,0,0,0-.71-2.36c-.13-.38-.25-.74-.36-1.11-.55-1.82,0-6.49,2.05-7.83,1.22-.82,2.16-1.5,2.8-2a1.17,1.17,0,0,0,.13-1.74,1.14,1.14,0,0,0-1.78.18,11.94,11.94,0,0,1-2,2.31,8.32,8.32,0,0,0-2.4,3.8.7.7,0,0,1-1.31.12,10,10,0,0,1-1.11-6,.64.64,0,0,0-.27-.63l-.21-.16a.65.65,0,0,0-1,.3c-.48,1.26-.86,4.18,2.42,9.21a9,9,0,0,1,1.17,2.69.84.84,0,0,0,.05.17c.11.39.25.79.38,1.17a12,12,0,0,1,.84,5.85.61.61,0,0,1-.15.36v0a.7.7,0,0,1-1.25-.35,17.67,17.67,0,0,0-1.59-5.3c-.13-.29-.27-.56-.41-.83h0s-.9-2.36-1.57-3.94a1.06,1.06,0,0,0-1.72-.33h0a1,1,0,0,0-.16,1.25l2.05,3.57c.16.32.33.66.49,1h0c.06.14.11.26.16.36a12.79,12.79,0,0,1,.69,9.67,30.75,30.75,0,0,1-1.51,3.09.86.86,0,0,1-1.62-.4c0-1.57-.06-3.18,0-4.06.12-2.85,1.17-5.68-.11-8.8-.3-.71-.64-1.54-1-2.46h0c-1-2.88-1.7-6.59.19-10.15a13.7,13.7,0,0,0,1.86-7.31,1.24,1.24,0,0,0-1.24-1.15h-.41a1.3,1.3,0,0,0-.86,1.69,7.36,7.36,0,0,1-.67,6.07,11.52,11.52,0,0,0-1.33,4.83.72.72,0,0,1-1.19.41,13,13,0,0,1-1.37-1.41c-2.2-2.55-1.29-5.7-.87-6.95a.69.69,0,0,0-.45-.89h0a1.33,1.33,0,0,0-1.66,1.12,9.9,9.9,0,0,0,2,7.42c.47.61.91,1.13,1.34,1.63A16.67,16.67,0,0,1,303,396h0c.32.94.67,1.77.95,2.47,1.11,2.7.83,4,.28,6.72v0a1,1,0,0,1-1.72.47l0,0a17.37,17.37,0,0,1-2.22-2.91,7.94,7.94,0,0,1-1-5,1.17,1.17,0,0,0-.77-1.25,1.14,1.14,0,0,0-1.49,1.24,15.63,15.63,0,0,0,1.92,5.78,19.2,19.2,0,0,0,2.41,3.16c1.11,1.24,1.91,2.15,2,3.62q0,.38,0,.75a.82.82,0,0,1-1.23.69c-.87-.5-1.83-1-2.8-1.52a18.93,18.93,0,0,1-4-2.42c-.37-.4-1-1.7-1.1-5.91-.06-2.46.06-5.63.38-9.68.32-4.2-.36-5.91-.94-6.63a.76.76,0,0,0-1.17,0h0a1,1,0,0,0,0,1c1.89,2.51,1.12,6.94.95,7.78a.84.84,0,0,1-.15.38,1,1,0,0,1-.5.33,1.82,1.82,0,0,1-1.88-.46l-.38-.49a6.61,6.61,0,0,1-1.61-4.59,1.17,1.17,0,0,0-1.21-1.12c-.66,0-.78.65-.71,1.43a8.85,8.85,0,0,0,2.67,5.11,6.81,6.81,0,0,0,1.59,1.25c1.05.49,1.12,1,1.6,3.92a16.7,16.7,0,0,1,.3,1.93c0,1,.06,1.34.05,2.79a.91.91,0,0,1-1.35.79,6.75,6.75,0,0,1-2.61-3.14,13.54,13.54,0,0,1-.46-2.52.75.75,0,0,0-.9-.56.76.76,0,0,0-.55.92c.37,1.61,1.67,5.09,6.2,8.06a14.38,14.38,0,0,1,1.19.86,27.68,27.68,0,0,0,3.83,2.24c1.11.58,2.26,1.18,3.24,1.79a2.65,2.65,0,0,1,.86,1.18v0a2.31,2.31,0,0,0,2.15,1.4Z" transform="translate(-287 -376.84)"/></svg>