<svg id="Layer_1" data-name="Layer 1" xmlns="http://www.w3.org/2000/svg" xmlns:xlink="http://www.w3.org/1999/xlink" viewBox="0 0 70.72 78.23"><defs><style>.cls-1{fill:#606060;}</style><linearGradient id="linear-gradient" x1="317.37" y1="363.52" x2="282.78" y2="423.43" gradientUnits="userSpaceOnUse"><stop offset="0.07" stop-color="#4e9aa0"/><stop offset="0.15" stop-color="#529ca1"/><stop offset="0.23" stop-color="#60a1a6"/><stop offset="0.32" stop-color="#76a9ad"/><stop offset="0.41" stop-color="#94b4b7"/><stop offset="0.5" stop-color="#bbc3c4"/><stop offset="0.53" stop-color="#c8c8c8"/><stop offset="0.71" stop-color="#c2a097"/><stop offset="0.81" stop-color="#bf8e80"/></linearGradient></defs><path class="cls-1" d="M306,435.51a4.69,4.69,0,0,0,4.45-3.34,57.15,57.15,0,0,1,4.31-10.32l.33-.63c2.71-5.09,6-10.39,10.34-14.18,16-14,14.36-19.91,14.58-22.39a3.29,3.29,0,0,0-.23-1.77,2.11,2.11,0,0,0-3.94-.16c-.82,1.88,0,9.23-1.77,11.4a110.91,110.91,0,0,1-8.13,7.93h0a2.4,2.4,0,0,1-4-1.21,47.27,47.27,0,0,0-1.41-4.71c-.27-.76-.52-1.49-.74-2.22-1.1-3.64.08-13,4.11-15.67,2.44-1.62,4.32-3,5.59-4a2.33,2.33,0,0,0,.27-3.47,2.3,2.3,0,0,0-3.57.36,24,24,0,0,1-3.94,4.62,16.49,16.49,0,0,0-4.81,7.6,1.41,1.41,0,0,1-2.63.24,20.48,20.48,0,0,1-2.37-9.25,18.91,18.91,0,0,1,.16-2.73,1.32,1.32,0,0,0-.54-1.27l-.43-.31a1.3,1.3,0,0,0-2,.59c-1,2.52-1.72,8.37,4.84,18.43a17.67,17.67,0,0,1,2.34,5.38c0,.12.07.23.1.35.24.78.51,1.56.77,2.32,1.12,3.28,2.28,6.68,1.68,11.71a1.39,1.39,0,0,1-.3.73l0,0a1.41,1.41,0,0,1-2.5-.7,35.11,35.11,0,0,0-3.17-10.6c-.26-.57-.54-1.12-.81-1.66h0s-1.81-4.71-3.16-7.87a2.11,2.11,0,0,0-3.44-.67h0a2.1,2.1,0,0,0-.31,2.49c1,1.67,2.63,4.58,4.09,7.15q.51,1,1,2h0c.11.28.22.51.32.72,2.41,5.5,4,12.47,1.38,19.33a67.41,67.41,0,0,1-3,6.18,1.74,1.74,0,0,1-3.25-.8c-.07-3.14-.12-6.37-.05-8.11.22-5.71,2.32-11.38-.24-17.61-.59-1.43-1.27-3.09-1.9-4.92h0c-2-5.76-3.41-13.19.37-20.31,3.48-6.55,3.93-11.63,3.72-14.63a2.48,2.48,0,0,0-2.47-2.29h-.82a2.61,2.61,0,0,0-1.73,3.39c.91,2.51,1.51,6.77-1.34,12.12a23.22,23.22,0,0,0-2.66,9.66,1.44,1.44,0,0,1-2.38.84,28.1,28.1,0,0,1-2.74-2.83c-4.39-5.1-2.56-11.4-1.73-13.91a1.39,1.39,0,0,0-.91-1.77h0A2.67,2.67,0,0,0,288,367a19.92,19.92,0,0,0,3.95,14.84c.93,1.21,1.82,2.25,2.67,3.26a33.34,33.34,0,0,1,6.62,10.51h0c.65,1.88,1.34,3.56,1.91,4.95,2.22,5.39,1.66,8.05.56,13.44v.06a2,2,0,0,1-3.45.94l0,0a35,35,0,0,1-4.46-5.84,15.94,15.94,0,0,1-1.91-10,2.33,2.33,0,0,0-1.54-2.51,2.29,2.29,0,0,0-3,2.48,31.41,31.41,0,0,0,3.86,11.56A38.27,38.27,0,0,0,298,417c2.22,2.49,3.83,4.29,4,7.24q0,.75-.06,1.5a1.64,1.64,0,0,1-2.46,1.38c-1.73-1-3.64-2-5.59-3-3.32-1.73-6.74-3.53-7.93-4.83-.74-.81-2-3.41-2.2-11.83-.12-4.93.13-11.26.76-19.37.66-8.39-.7-11.82-1.88-13.25a1.49,1.49,0,0,0-2.33,0h0a1.92,1.92,0,0,0,.06,2.08c3.77,5,2.24,13.88,1.91,15.56a2,2,0,0,1-.32.75,1.93,1.93,0,0,1-1,.68,3.62,3.62,0,0,1-3.76-.94l-.76-1c-3-4.09-3.06-5.77-3.22-9.18a2.32,2.32,0,0,0-2.41-2.24c-1.33.06-1.57,1.31-1.42,2.87a17.87,17.87,0,0,0,5.33,10.21,13.17,13.17,0,0,0,3.2,2.5c2.09,1,2.23,1.95,3.19,7.84a35.77,35.77,0,0,1,.6,3.86c0,2,.12,2.67.09,5.58a1.82,1.82,0,0,1-2.68,1.58,13.46,13.46,0,0,1-5.23-6.28,26.27,26.27,0,0,1-.92-5,1.49,1.49,0,0,0-1.81-1.11,1.51,1.51,0,0,0-1.1,1.83c.74,3.21,3.35,10.19,12.4,16.11.83.54,1.62,1.13,2.4,1.73a54.47,54.47,0,0,0,7.64,4.47c2.23,1.17,4.53,2.38,6.48,3.58a5.34,5.34,0,0,1,1.73,2.38l0,.05a4.63,4.63,0,0,0,4.29,2.8Z" transform="translate(-269.32 -357.28)"/></svg>